<mxfile host="app.diagrams.net" modified="2021-08-04T06:23:38.093Z" agent="5.0 (X11; Linux x86_64) AppleWebKit/537.36 (KHTML, like Gecko) Chrome/92.0.4515.107 Safari/537.36" etag="332zfrnV8-A2DH61u-Pk" version="14.9.4" type="github">
  <diagram id="Trp-8KwncwjceGhLTjEP" name="Page-1">
    <mxGraphModel dx="1593" dy="2048" grid="1" gridSize="10" guides="1" tooltips="1" connect="1" arrows="1" fold="1" page="1" pageScale="1" pageWidth="850" pageHeight="1100" math="0" shadow="0">
      <root>
        <mxCell id="0" />
        <mxCell id="1" parent="0" />
        <mxCell id="UASw9s2q-20YBFk_V_3o-1" value="Company" style="shape=table;startSize=30;container=1;collapsible=1;childLayout=tableLayout;fixedRows=1;rowLines=0;fontStyle=1;align=center;resizeLast=1;" parent="1" vertex="1">
          <mxGeometry x="91" y="200" width="180" height="130" as="geometry" />
        </mxCell>
        <mxCell id="UASw9s2q-20YBFk_V_3o-2" value="" style="shape=partialRectangle;collapsible=0;dropTarget=0;pointerEvents=0;fillColor=none;top=0;left=0;bottom=0;right=0;points=[[0,0.5],[1,0.5]];portConstraint=eastwest;" parent="UASw9s2q-20YBFk_V_3o-1" vertex="1">
          <mxGeometry y="30" width="180" height="30" as="geometry" />
        </mxCell>
        <mxCell id="UASw9s2q-20YBFk_V_3o-3" value="PK" style="shape=partialRectangle;connectable=0;fillColor=none;top=0;left=0;bottom=0;right=0;fontStyle=1;overflow=hidden;" parent="UASw9s2q-20YBFk_V_3o-2" vertex="1">
          <mxGeometry width="60" height="30" as="geometry" />
        </mxCell>
        <mxCell id="UASw9s2q-20YBFk_V_3o-4" value="id: integer" style="shape=partialRectangle;connectable=0;fillColor=none;top=0;left=0;bottom=0;right=0;align=left;spacingLeft=6;fontStyle=5;overflow=hidden;" parent="UASw9s2q-20YBFk_V_3o-2" vertex="1">
          <mxGeometry x="60" width="120" height="30" as="geometry" />
        </mxCell>
        <mxCell id="UASw9s2q-20YBFk_V_3o-8" value="" style="shape=partialRectangle;collapsible=0;dropTarget=0;pointerEvents=0;fillColor=none;top=0;left=0;bottom=0;right=0;points=[[0,0.5],[1,0.5]];portConstraint=eastwest;" parent="UASw9s2q-20YBFk_V_3o-1" vertex="1">
          <mxGeometry y="60" width="180" height="30" as="geometry" />
        </mxCell>
        <mxCell id="UASw9s2q-20YBFk_V_3o-9" value="" style="shape=partialRectangle;connectable=0;fillColor=none;top=0;left=0;bottom=0;right=0;editable=1;overflow=hidden;" parent="UASw9s2q-20YBFk_V_3o-8" vertex="1">
          <mxGeometry width="60" height="30" as="geometry" />
        </mxCell>
        <mxCell id="UASw9s2q-20YBFk_V_3o-10" value="name: string(255)" style="shape=partialRectangle;connectable=0;fillColor=none;top=0;left=0;bottom=0;right=0;align=left;spacingLeft=6;overflow=hidden;" parent="UASw9s2q-20YBFk_V_3o-8" vertex="1">
          <mxGeometry x="60" width="120" height="30" as="geometry" />
        </mxCell>
        <mxCell id="UASw9s2q-20YBFk_V_3o-11" value="" style="shape=partialRectangle;collapsible=0;dropTarget=0;pointerEvents=0;fillColor=none;top=0;left=0;bottom=0;right=0;points=[[0,0.5],[1,0.5]];portConstraint=eastwest;" parent="UASw9s2q-20YBFk_V_3o-1" vertex="1">
          <mxGeometry y="90" width="180" height="30" as="geometry" />
        </mxCell>
        <mxCell id="UASw9s2q-20YBFk_V_3o-12" value="" style="shape=partialRectangle;connectable=0;fillColor=none;top=0;left=0;bottom=0;right=0;editable=1;overflow=hidden;" parent="UASw9s2q-20YBFk_V_3o-11" vertex="1">
          <mxGeometry width="60" height="30" as="geometry" />
        </mxCell>
        <mxCell id="UASw9s2q-20YBFk_V_3o-13" value="address: string(255)" style="shape=partialRectangle;connectable=0;fillColor=none;top=0;left=0;bottom=0;right=0;align=left;spacingLeft=6;overflow=hidden;" parent="UASw9s2q-20YBFk_V_3o-11" vertex="1">
          <mxGeometry x="60" width="120" height="30" as="geometry" />
        </mxCell>
        <mxCell id="UASw9s2q-20YBFk_V_3o-14" value="Employee" style="shape=table;startSize=30;container=1;collapsible=1;childLayout=tableLayout;fixedRows=1;rowLines=0;fontStyle=1;align=center;resizeLast=1;" parent="1" vertex="1">
          <mxGeometry x="510" y="126" width="240" height="240" as="geometry" />
        </mxCell>
        <mxCell id="UASw9s2q-20YBFk_V_3o-15" value="" style="shape=partialRectangle;collapsible=0;dropTarget=0;pointerEvents=0;fillColor=none;top=0;left=0;bottom=0;right=0;points=[[0,0.5],[1,0.5]];portConstraint=eastwest;" parent="UASw9s2q-20YBFk_V_3o-14" vertex="1">
          <mxGeometry y="30" width="240" height="30" as="geometry" />
        </mxCell>
        <mxCell id="UASw9s2q-20YBFk_V_3o-16" value="PK" style="shape=partialRectangle;connectable=0;fillColor=none;top=0;left=0;bottom=0;right=0;fontStyle=1;overflow=hidden;" parent="UASw9s2q-20YBFk_V_3o-15" vertex="1">
          <mxGeometry width="60" height="30" as="geometry" />
        </mxCell>
        <mxCell id="UASw9s2q-20YBFk_V_3o-17" value="id: integer" style="shape=partialRectangle;connectable=0;fillColor=none;top=0;left=0;bottom=0;right=0;align=left;spacingLeft=6;fontStyle=5;overflow=hidden;" parent="UASw9s2q-20YBFk_V_3o-15" vertex="1">
          <mxGeometry x="60" width="180" height="30" as="geometry" />
        </mxCell>
        <mxCell id="UASw9s2q-20YBFk_V_3o-21" value="" style="shape=partialRectangle;collapsible=0;dropTarget=0;pointerEvents=0;fillColor=none;top=0;left=0;bottom=0;right=0;points=[[0,0.5],[1,0.5]];portConstraint=eastwest;" parent="UASw9s2q-20YBFk_V_3o-14" vertex="1">
          <mxGeometry y="60" width="240" height="30" as="geometry" />
        </mxCell>
        <mxCell id="UASw9s2q-20YBFk_V_3o-22" value="" style="shape=partialRectangle;connectable=0;fillColor=none;top=0;left=0;bottom=0;right=0;editable=1;overflow=hidden;" parent="UASw9s2q-20YBFk_V_3o-21" vertex="1">
          <mxGeometry width="60" height="30" as="geometry" />
        </mxCell>
        <mxCell id="UASw9s2q-20YBFk_V_3o-23" value="first_name: string(255)" style="shape=partialRectangle;connectable=0;fillColor=none;top=0;left=0;bottom=0;right=0;align=left;spacingLeft=6;overflow=hidden;" parent="UASw9s2q-20YBFk_V_3o-21" vertex="1">
          <mxGeometry x="60" width="180" height="30" as="geometry" />
        </mxCell>
        <mxCell id="UASw9s2q-20YBFk_V_3o-24" value="" style="shape=partialRectangle;collapsible=0;dropTarget=0;pointerEvents=0;fillColor=none;top=0;left=0;bottom=0;right=0;points=[[0,0.5],[1,0.5]];portConstraint=eastwest;" parent="UASw9s2q-20YBFk_V_3o-14" vertex="1">
          <mxGeometry y="90" width="240" height="30" as="geometry" />
        </mxCell>
        <mxCell id="UASw9s2q-20YBFk_V_3o-25" value="" style="shape=partialRectangle;connectable=0;fillColor=none;top=0;left=0;bottom=0;right=0;editable=1;overflow=hidden;" parent="UASw9s2q-20YBFk_V_3o-24" vertex="1">
          <mxGeometry width="60" height="30" as="geometry" />
        </mxCell>
        <mxCell id="UASw9s2q-20YBFk_V_3o-26" value="last_name: string(255)" style="shape=partialRectangle;connectable=0;fillColor=none;top=0;left=0;bottom=0;right=0;align=left;spacingLeft=6;overflow=hidden;" parent="UASw9s2q-20YBFk_V_3o-24" vertex="1">
          <mxGeometry x="60" width="180" height="30" as="geometry" />
        </mxCell>
        <mxCell id="UASw9s2q-20YBFk_V_3o-27" value="" style="shape=partialRectangle;collapsible=0;dropTarget=0;pointerEvents=0;fillColor=none;top=0;left=0;bottom=0;right=0;points=[[0,0.5],[1,0.5]];portConstraint=eastwest;" parent="UASw9s2q-20YBFk_V_3o-14" vertex="1">
          <mxGeometry y="120" width="240" height="30" as="geometry" />
        </mxCell>
        <mxCell id="UASw9s2q-20YBFk_V_3o-28" value="UK" style="shape=partialRectangle;connectable=0;fillColor=none;top=0;left=0;bottom=0;right=0;fontStyle=0;overflow=hidden;" parent="UASw9s2q-20YBFk_V_3o-27" vertex="1">
          <mxGeometry width="60" height="30" as="geometry" />
        </mxCell>
        <mxCell id="UASw9s2q-20YBFk_V_3o-29" value="mobile_no: integer(10)" style="shape=partialRectangle;connectable=0;fillColor=none;top=0;left=0;bottom=0;right=0;align=left;spacingLeft=6;fontStyle=0;overflow=hidden;" parent="UASw9s2q-20YBFk_V_3o-27" vertex="1">
          <mxGeometry x="60" width="180" height="30" as="geometry" />
        </mxCell>
        <mxCell id="UASw9s2q-20YBFk_V_3o-30" value="" style="shape=partialRectangle;collapsible=0;dropTarget=0;pointerEvents=0;fillColor=none;top=0;left=0;bottom=0;right=0;points=[[0,0.5],[1,0.5]];portConstraint=eastwest;" parent="UASw9s2q-20YBFk_V_3o-14" vertex="1">
          <mxGeometry y="150" width="240" height="30" as="geometry" />
        </mxCell>
        <mxCell id="UASw9s2q-20YBFk_V_3o-31" value="FK" style="shape=partialRectangle;connectable=0;fillColor=none;top=0;left=0;bottom=0;right=0;fontStyle=0;overflow=hidden;" parent="UASw9s2q-20YBFk_V_3o-30" vertex="1">
          <mxGeometry width="60" height="30" as="geometry" />
        </mxCell>
        <mxCell id="UASw9s2q-20YBFk_V_3o-32" value="company_id: integer" style="shape=partialRectangle;connectable=0;fillColor=none;top=0;left=0;bottom=0;right=0;align=left;spacingLeft=6;fontStyle=0;overflow=hidden;" parent="UASw9s2q-20YBFk_V_3o-30" vertex="1">
          <mxGeometry x="60" width="180" height="30" as="geometry" />
        </mxCell>
        <mxCell id="ekgFf3dn49JkfgrPfWF--18" value="" style="shape=partialRectangle;collapsible=0;dropTarget=0;pointerEvents=0;fillColor=none;top=0;left=0;bottom=0;right=0;points=[[0,0.5],[1,0.5]];portConstraint=eastwest;" vertex="1" parent="UASw9s2q-20YBFk_V_3o-14">
          <mxGeometry y="180" width="240" height="30" as="geometry" />
        </mxCell>
        <mxCell id="ekgFf3dn49JkfgrPfWF--19" value="" style="shape=partialRectangle;connectable=0;fillColor=none;top=0;left=0;bottom=0;right=0;fontStyle=0;overflow=hidden;" vertex="1" parent="ekgFf3dn49JkfgrPfWF--18">
          <mxGeometry width="60" height="30" as="geometry" />
        </mxCell>
        <mxCell id="ekgFf3dn49JkfgrPfWF--20" value="" style="shape=partialRectangle;connectable=0;fillColor=none;top=0;left=0;bottom=0;right=0;align=left;spacingLeft=6;fontStyle=0;overflow=hidden;" vertex="1" parent="ekgFf3dn49JkfgrPfWF--18">
          <mxGeometry x="60" width="180" height="30" as="geometry" />
        </mxCell>
        <mxCell id="UASw9s2q-20YBFk_V_3o-33" style="edgeStyle=orthogonalEdgeStyle;rounded=0;orthogonalLoop=1;jettySize=auto;html=1;exitX=0;exitY=0.5;exitDx=0;exitDy=0;entryX=1;entryY=0.5;entryDx=0;entryDy=0;" parent="1" source="UASw9s2q-20YBFk_V_3o-30" target="UASw9s2q-20YBFk_V_3o-2" edge="1">
          <mxGeometry relative="1" as="geometry" />
        </mxCell>
        <mxCell id="ekgFf3dn49JkfgrPfWF--1" value="CompanyRoles" style="shape=table;startSize=30;container=1;collapsible=1;childLayout=tableLayout;fixedRows=1;rowLines=0;fontStyle=1;align=center;resizeLast=1;" vertex="1" parent="1">
          <mxGeometry x="91" y="-70" width="189" height="160" as="geometry" />
        </mxCell>
        <mxCell id="ekgFf3dn49JkfgrPfWF--2" value="" style="shape=partialRectangle;collapsible=0;dropTarget=0;pointerEvents=0;fillColor=none;top=0;left=0;bottom=0;right=0;points=[[0,0.5],[1,0.5]];portConstraint=eastwest;" vertex="1" parent="ekgFf3dn49JkfgrPfWF--1">
          <mxGeometry y="30" width="189" height="30" as="geometry" />
        </mxCell>
        <mxCell id="ekgFf3dn49JkfgrPfWF--3" value="PK" style="shape=partialRectangle;connectable=0;fillColor=none;top=0;left=0;bottom=0;right=0;fontStyle=1;overflow=hidden;" vertex="1" parent="ekgFf3dn49JkfgrPfWF--2">
          <mxGeometry width="60" height="30" as="geometry" />
        </mxCell>
        <mxCell id="ekgFf3dn49JkfgrPfWF--4" value="id: integer" style="shape=partialRectangle;connectable=0;fillColor=none;top=0;left=0;bottom=0;right=0;align=left;spacingLeft=6;fontStyle=5;overflow=hidden;" vertex="1" parent="ekgFf3dn49JkfgrPfWF--2">
          <mxGeometry x="60" width="129" height="30" as="geometry" />
        </mxCell>
        <mxCell id="ekgFf3dn49JkfgrPfWF--8" value="" style="shape=partialRectangle;collapsible=0;dropTarget=0;pointerEvents=0;fillColor=none;top=0;left=0;bottom=0;right=0;points=[[0,0.5],[1,0.5]];portConstraint=eastwest;" vertex="1" parent="ekgFf3dn49JkfgrPfWF--1">
          <mxGeometry y="60" width="189" height="30" as="geometry" />
        </mxCell>
        <mxCell id="ekgFf3dn49JkfgrPfWF--9" value="" style="shape=partialRectangle;connectable=0;fillColor=none;top=0;left=0;bottom=0;right=0;editable=1;overflow=hidden;" vertex="1" parent="ekgFf3dn49JkfgrPfWF--8">
          <mxGeometry width="60" height="30" as="geometry" />
        </mxCell>
        <mxCell id="ekgFf3dn49JkfgrPfWF--10" value="name: string(150)" style="shape=partialRectangle;connectable=0;fillColor=none;top=0;left=0;bottom=0;right=0;align=left;spacingLeft=6;overflow=hidden;" vertex="1" parent="ekgFf3dn49JkfgrPfWF--8">
          <mxGeometry x="60" width="129" height="30" as="geometry" />
        </mxCell>
        <mxCell id="ekgFf3dn49JkfgrPfWF--11" value="" style="shape=partialRectangle;collapsible=0;dropTarget=0;pointerEvents=0;fillColor=none;top=0;left=0;bottom=0;right=0;points=[[0,0.5],[1,0.5]];portConstraint=eastwest;" vertex="1" parent="ekgFf3dn49JkfgrPfWF--1">
          <mxGeometry y="90" width="189" height="30" as="geometry" />
        </mxCell>
        <mxCell id="ekgFf3dn49JkfgrPfWF--12" value="" style="shape=partialRectangle;connectable=0;fillColor=none;top=0;left=0;bottom=0;right=0;editable=1;overflow=hidden;" vertex="1" parent="ekgFf3dn49JkfgrPfWF--11">
          <mxGeometry width="60" height="30" as="geometry" />
        </mxCell>
        <mxCell id="ekgFf3dn49JkfgrPfWF--13" value="desc: text" style="shape=partialRectangle;connectable=0;fillColor=none;top=0;left=0;bottom=0;right=0;align=left;spacingLeft=6;overflow=hidden;" vertex="1" parent="ekgFf3dn49JkfgrPfWF--11">
          <mxGeometry x="60" width="129" height="30" as="geometry" />
        </mxCell>
        <mxCell id="ekgFf3dn49JkfgrPfWF--14" value="" style="shape=partialRectangle;collapsible=0;dropTarget=0;pointerEvents=0;fillColor=none;top=0;left=0;bottom=0;right=0;points=[[0,0.5],[1,0.5]];portConstraint=eastwest;" vertex="1" parent="ekgFf3dn49JkfgrPfWF--1">
          <mxGeometry y="120" width="189" height="30" as="geometry" />
        </mxCell>
        <mxCell id="ekgFf3dn49JkfgrPfWF--15" value="FK" style="shape=partialRectangle;connectable=0;fillColor=none;top=0;left=0;bottom=0;right=0;fontStyle=0;overflow=hidden;" vertex="1" parent="ekgFf3dn49JkfgrPfWF--14">
          <mxGeometry width="60" height="30" as="geometry" />
        </mxCell>
        <mxCell id="ekgFf3dn49JkfgrPfWF--16" value="company_id: integer" style="shape=partialRectangle;connectable=0;fillColor=none;top=0;left=0;bottom=0;right=0;align=left;spacingLeft=6;fontStyle=0;overflow=hidden;" vertex="1" parent="ekgFf3dn49JkfgrPfWF--14">
          <mxGeometry x="60" width="129" height="30" as="geometry" />
        </mxCell>
        <mxCell id="ekgFf3dn49JkfgrPfWF--17" style="edgeStyle=orthogonalEdgeStyle;rounded=0;orthogonalLoop=1;jettySize=auto;html=1;exitX=0;exitY=0.5;exitDx=0;exitDy=0;entryX=0;entryY=0.5;entryDx=0;entryDy=0;" edge="1" parent="1" source="ekgFf3dn49JkfgrPfWF--14" target="UASw9s2q-20YBFk_V_3o-2">
          <mxGeometry relative="1" as="geometry" />
        </mxCell>
        <mxCell id="ekgFf3dn49JkfgrPfWF--21" value="EmployeeRoles" style="shape=table;startSize=30;container=1;collapsible=1;childLayout=tableLayout;fixedRows=1;rowLines=0;fontStyle=1;align=center;resizeLast=1;" vertex="1" parent="1">
          <mxGeometry x="600" y="-100" width="200" height="135" as="geometry" />
        </mxCell>
        <mxCell id="ekgFf3dn49JkfgrPfWF--22" value="" style="shape=partialRectangle;collapsible=0;dropTarget=0;pointerEvents=0;fillColor=none;top=0;left=0;bottom=0;right=0;points=[[0,0.5],[1,0.5]];portConstraint=eastwest;" vertex="1" parent="ekgFf3dn49JkfgrPfWF--21">
          <mxGeometry y="30" width="200" height="30" as="geometry" />
        </mxCell>
        <mxCell id="ekgFf3dn49JkfgrPfWF--23" value="PK" style="shape=partialRectangle;connectable=0;fillColor=none;top=0;left=0;bottom=0;right=0;fontStyle=1;overflow=hidden;" vertex="1" parent="ekgFf3dn49JkfgrPfWF--22">
          <mxGeometry width="60" height="30" as="geometry" />
        </mxCell>
        <mxCell id="ekgFf3dn49JkfgrPfWF--24" value="id: integer" style="shape=partialRectangle;connectable=0;fillColor=none;top=0;left=0;bottom=0;right=0;align=left;spacingLeft=6;fontStyle=5;overflow=hidden;" vertex="1" parent="ekgFf3dn49JkfgrPfWF--22">
          <mxGeometry x="60" width="140" height="30" as="geometry" />
        </mxCell>
        <mxCell id="ekgFf3dn49JkfgrPfWF--28" value="" style="shape=partialRectangle;collapsible=0;dropTarget=0;pointerEvents=0;fillColor=none;top=0;left=0;bottom=0;right=0;points=[[0,0.5],[1,0.5]];portConstraint=eastwest;" vertex="1" parent="ekgFf3dn49JkfgrPfWF--21">
          <mxGeometry y="60" width="200" height="30" as="geometry" />
        </mxCell>
        <mxCell id="ekgFf3dn49JkfgrPfWF--29" value="FK" style="shape=partialRectangle;connectable=0;fillColor=none;top=0;left=0;bottom=0;right=0;editable=1;overflow=hidden;" vertex="1" parent="ekgFf3dn49JkfgrPfWF--28">
          <mxGeometry width="60" height="30" as="geometry" />
        </mxCell>
        <mxCell id="ekgFf3dn49JkfgrPfWF--30" value="role_id: integer" style="shape=partialRectangle;connectable=0;fillColor=none;top=0;left=0;bottom=0;right=0;align=left;spacingLeft=6;overflow=hidden;" vertex="1" parent="ekgFf3dn49JkfgrPfWF--28">
          <mxGeometry x="60" width="140" height="30" as="geometry" />
        </mxCell>
        <mxCell id="ekgFf3dn49JkfgrPfWF--31" value="" style="shape=partialRectangle;collapsible=0;dropTarget=0;pointerEvents=0;fillColor=none;top=0;left=0;bottom=0;right=0;points=[[0,0.5],[1,0.5]];portConstraint=eastwest;" vertex="1" parent="ekgFf3dn49JkfgrPfWF--21">
          <mxGeometry y="90" width="200" height="30" as="geometry" />
        </mxCell>
        <mxCell id="ekgFf3dn49JkfgrPfWF--32" value="FK" style="shape=partialRectangle;connectable=0;fillColor=none;top=0;left=0;bottom=0;right=0;editable=1;overflow=hidden;" vertex="1" parent="ekgFf3dn49JkfgrPfWF--31">
          <mxGeometry width="60" height="30" as="geometry" />
        </mxCell>
        <mxCell id="ekgFf3dn49JkfgrPfWF--33" value="employee_id: integer" style="shape=partialRectangle;connectable=0;fillColor=none;top=0;left=0;bottom=0;right=0;align=left;spacingLeft=6;overflow=hidden;" vertex="1" parent="ekgFf3dn49JkfgrPfWF--31">
          <mxGeometry x="60" width="140" height="30" as="geometry" />
        </mxCell>
        <mxCell id="ekgFf3dn49JkfgrPfWF--34" style="edgeStyle=orthogonalEdgeStyle;rounded=0;orthogonalLoop=1;jettySize=auto;html=1;exitX=0;exitY=0.5;exitDx=0;exitDy=0;entryX=1;entryY=0.5;entryDx=0;entryDy=0;" edge="1" parent="1" source="ekgFf3dn49JkfgrPfWF--28" target="ekgFf3dn49JkfgrPfWF--2">
          <mxGeometry relative="1" as="geometry" />
        </mxCell>
        <mxCell id="ekgFf3dn49JkfgrPfWF--36" style="edgeStyle=orthogonalEdgeStyle;rounded=0;orthogonalLoop=1;jettySize=auto;html=1;exitX=1;exitY=0.5;exitDx=0;exitDy=0;entryX=1;entryY=0.5;entryDx=0;entryDy=0;" edge="1" parent="1" source="ekgFf3dn49JkfgrPfWF--31" target="UASw9s2q-20YBFk_V_3o-15">
          <mxGeometry relative="1" as="geometry" />
        </mxCell>
        <mxCell id="ekgFf3dn49JkfgrPfWF--37" value="Groups" style="shape=table;startSize=30;container=1;collapsible=1;childLayout=tableLayout;fixedRows=1;rowLines=0;fontStyle=1;align=center;resizeLast=1;" vertex="1" parent="1">
          <mxGeometry x="91" y="440" width="180" height="160" as="geometry" />
        </mxCell>
        <mxCell id="ekgFf3dn49JkfgrPfWF--38" value="" style="shape=partialRectangle;collapsible=0;dropTarget=0;pointerEvents=0;fillColor=none;top=0;left=0;bottom=0;right=0;points=[[0,0.5],[1,0.5]];portConstraint=eastwest;" vertex="1" parent="ekgFf3dn49JkfgrPfWF--37">
          <mxGeometry y="30" width="180" height="30" as="geometry" />
        </mxCell>
        <mxCell id="ekgFf3dn49JkfgrPfWF--39" value="PK" style="shape=partialRectangle;connectable=0;fillColor=none;top=0;left=0;bottom=0;right=0;fontStyle=1;overflow=hidden;" vertex="1" parent="ekgFf3dn49JkfgrPfWF--38">
          <mxGeometry width="60" height="30" as="geometry" />
        </mxCell>
        <mxCell id="ekgFf3dn49JkfgrPfWF--40" value="id: integer" style="shape=partialRectangle;connectable=0;fillColor=none;top=0;left=0;bottom=0;right=0;align=left;spacingLeft=6;fontStyle=5;overflow=hidden;" vertex="1" parent="ekgFf3dn49JkfgrPfWF--38">
          <mxGeometry x="60" width="120" height="30" as="geometry" />
        </mxCell>
        <mxCell id="ekgFf3dn49JkfgrPfWF--44" value="" style="shape=partialRectangle;collapsible=0;dropTarget=0;pointerEvents=0;fillColor=none;top=0;left=0;bottom=0;right=0;points=[[0,0.5],[1,0.5]];portConstraint=eastwest;" vertex="1" parent="ekgFf3dn49JkfgrPfWF--37">
          <mxGeometry y="60" width="180" height="30" as="geometry" />
        </mxCell>
        <mxCell id="ekgFf3dn49JkfgrPfWF--45" value="" style="shape=partialRectangle;connectable=0;fillColor=none;top=0;left=0;bottom=0;right=0;editable=1;overflow=hidden;" vertex="1" parent="ekgFf3dn49JkfgrPfWF--44">
          <mxGeometry width="60" height="30" as="geometry" />
        </mxCell>
        <mxCell id="ekgFf3dn49JkfgrPfWF--46" value="name: string(150)" style="shape=partialRectangle;connectable=0;fillColor=none;top=0;left=0;bottom=0;right=0;align=left;spacingLeft=6;overflow=hidden;" vertex="1" parent="ekgFf3dn49JkfgrPfWF--44">
          <mxGeometry x="60" width="120" height="30" as="geometry" />
        </mxCell>
        <mxCell id="ekgFf3dn49JkfgrPfWF--47" value="" style="shape=partialRectangle;collapsible=0;dropTarget=0;pointerEvents=0;fillColor=none;top=0;left=0;bottom=0;right=0;points=[[0,0.5],[1,0.5]];portConstraint=eastwest;" vertex="1" parent="ekgFf3dn49JkfgrPfWF--37">
          <mxGeometry y="90" width="180" height="30" as="geometry" />
        </mxCell>
        <mxCell id="ekgFf3dn49JkfgrPfWF--48" value="" style="shape=partialRectangle;connectable=0;fillColor=none;top=0;left=0;bottom=0;right=0;editable=1;overflow=hidden;" vertex="1" parent="ekgFf3dn49JkfgrPfWF--47">
          <mxGeometry width="60" height="30" as="geometry" />
        </mxCell>
        <mxCell id="ekgFf3dn49JkfgrPfWF--49" value="desc: text" style="shape=partialRectangle;connectable=0;fillColor=none;top=0;left=0;bottom=0;right=0;align=left;spacingLeft=6;overflow=hidden;" vertex="1" parent="ekgFf3dn49JkfgrPfWF--47">
          <mxGeometry x="60" width="120" height="30" as="geometry" />
        </mxCell>
        <mxCell id="ekgFf3dn49JkfgrPfWF--50" value="" style="shape=partialRectangle;collapsible=0;dropTarget=0;pointerEvents=0;fillColor=none;top=0;left=0;bottom=0;right=0;points=[[0,0.5],[1,0.5]];portConstraint=eastwest;" vertex="1" parent="ekgFf3dn49JkfgrPfWF--37">
          <mxGeometry y="120" width="180" height="30" as="geometry" />
        </mxCell>
        <mxCell id="ekgFf3dn49JkfgrPfWF--51" value="FK" style="shape=partialRectangle;connectable=0;fillColor=none;top=0;left=0;bottom=0;right=0;fontStyle=0;overflow=hidden;" vertex="1" parent="ekgFf3dn49JkfgrPfWF--50">
          <mxGeometry width="60" height="30" as="geometry" />
        </mxCell>
        <mxCell id="ekgFf3dn49JkfgrPfWF--52" value="company_id: integer" style="shape=partialRectangle;connectable=0;fillColor=none;top=0;left=0;bottom=0;right=0;align=left;spacingLeft=6;fontStyle=0;overflow=hidden;" vertex="1" parent="ekgFf3dn49JkfgrPfWF--50">
          <mxGeometry x="60" width="120" height="30" as="geometry" />
        </mxCell>
        <mxCell id="ekgFf3dn49JkfgrPfWF--53" style="edgeStyle=orthogonalEdgeStyle;rounded=0;orthogonalLoop=1;jettySize=auto;html=1;exitX=0;exitY=0.5;exitDx=0;exitDy=0;entryX=0;entryY=0.5;entryDx=0;entryDy=0;" edge="1" parent="1" source="ekgFf3dn49JkfgrPfWF--50" target="UASw9s2q-20YBFk_V_3o-2">
          <mxGeometry relative="1" as="geometry">
            <Array as="points">
              <mxPoint x="50" y="575" />
              <mxPoint x="50" y="245" />
            </Array>
          </mxGeometry>
        </mxCell>
        <mxCell id="ekgFf3dn49JkfgrPfWF--54" value="Membership" style="shape=table;startSize=30;container=1;collapsible=1;childLayout=tableLayout;fixedRows=1;rowLines=0;fontStyle=1;align=center;resizeLast=1;" vertex="1" parent="1">
          <mxGeometry x="507" y="411" width="200" height="140" as="geometry" />
        </mxCell>
        <mxCell id="ekgFf3dn49JkfgrPfWF--55" value="" style="shape=partialRectangle;collapsible=0;dropTarget=0;pointerEvents=0;fillColor=none;top=0;left=0;bottom=0;right=0;points=[[0,0.5],[1,0.5]];portConstraint=eastwest;" vertex="1" parent="ekgFf3dn49JkfgrPfWF--54">
          <mxGeometry y="30" width="200" height="30" as="geometry" />
        </mxCell>
        <mxCell id="ekgFf3dn49JkfgrPfWF--56" value="PK" style="shape=partialRectangle;connectable=0;fillColor=none;top=0;left=0;bottom=0;right=0;fontStyle=1;overflow=hidden;" vertex="1" parent="ekgFf3dn49JkfgrPfWF--55">
          <mxGeometry width="60" height="30" as="geometry" />
        </mxCell>
        <mxCell id="ekgFf3dn49JkfgrPfWF--57" value="id: integer" style="shape=partialRectangle;connectable=0;fillColor=none;top=0;left=0;bottom=0;right=0;align=left;spacingLeft=6;fontStyle=5;overflow=hidden;" vertex="1" parent="ekgFf3dn49JkfgrPfWF--55">
          <mxGeometry x="60" width="140" height="30" as="geometry" />
        </mxCell>
        <mxCell id="ekgFf3dn49JkfgrPfWF--61" value="" style="shape=partialRectangle;collapsible=0;dropTarget=0;pointerEvents=0;fillColor=none;top=0;left=0;bottom=0;right=0;points=[[0,0.5],[1,0.5]];portConstraint=eastwest;" vertex="1" parent="ekgFf3dn49JkfgrPfWF--54">
          <mxGeometry y="60" width="200" height="30" as="geometry" />
        </mxCell>
        <mxCell id="ekgFf3dn49JkfgrPfWF--62" value="FK" style="shape=partialRectangle;connectable=0;fillColor=none;top=0;left=0;bottom=0;right=0;editable=1;overflow=hidden;" vertex="1" parent="ekgFf3dn49JkfgrPfWF--61">
          <mxGeometry width="60" height="30" as="geometry" />
        </mxCell>
        <mxCell id="ekgFf3dn49JkfgrPfWF--63" value="group_id: integer" style="shape=partialRectangle;connectable=0;fillColor=none;top=0;left=0;bottom=0;right=0;align=left;spacingLeft=6;overflow=hidden;" vertex="1" parent="ekgFf3dn49JkfgrPfWF--61">
          <mxGeometry x="60" width="140" height="30" as="geometry" />
        </mxCell>
        <mxCell id="ekgFf3dn49JkfgrPfWF--64" value="" style="shape=partialRectangle;collapsible=0;dropTarget=0;pointerEvents=0;fillColor=none;top=0;left=0;bottom=0;right=0;points=[[0,0.5],[1,0.5]];portConstraint=eastwest;" vertex="1" parent="ekgFf3dn49JkfgrPfWF--54">
          <mxGeometry y="90" width="200" height="30" as="geometry" />
        </mxCell>
        <mxCell id="ekgFf3dn49JkfgrPfWF--65" value="FK" style="shape=partialRectangle;connectable=0;fillColor=none;top=0;left=0;bottom=0;right=0;editable=1;overflow=hidden;" vertex="1" parent="ekgFf3dn49JkfgrPfWF--64">
          <mxGeometry width="60" height="30" as="geometry" />
        </mxCell>
        <mxCell id="ekgFf3dn49JkfgrPfWF--66" value="employee_id: integer" style="shape=partialRectangle;connectable=0;fillColor=none;top=0;left=0;bottom=0;right=0;align=left;spacingLeft=6;overflow=hidden;" vertex="1" parent="ekgFf3dn49JkfgrPfWF--64">
          <mxGeometry x="60" width="140" height="30" as="geometry" />
        </mxCell>
        <mxCell id="ekgFf3dn49JkfgrPfWF--67" style="edgeStyle=orthogonalEdgeStyle;rounded=0;orthogonalLoop=1;jettySize=auto;html=1;exitX=0;exitY=0.5;exitDx=0;exitDy=0;entryX=1;entryY=0.5;entryDx=0;entryDy=0;" edge="1" parent="1" source="ekgFf3dn49JkfgrPfWF--61" target="ekgFf3dn49JkfgrPfWF--38">
          <mxGeometry relative="1" as="geometry" />
        </mxCell>
        <mxCell id="ekgFf3dn49JkfgrPfWF--68" style="edgeStyle=orthogonalEdgeStyle;rounded=0;orthogonalLoop=1;jettySize=auto;html=1;exitX=1;exitY=0.5;exitDx=0;exitDy=0;entryX=1;entryY=0.5;entryDx=0;entryDy=0;" edge="1" parent="1" source="ekgFf3dn49JkfgrPfWF--64" target="UASw9s2q-20YBFk_V_3o-15">
          <mxGeometry relative="1" as="geometry" />
        </mxCell>
        <mxCell id="ekgFf3dn49JkfgrPfWF--69" value="Permission" style="shape=table;startSize=30;container=1;collapsible=1;childLayout=tableLayout;fixedRows=1;rowLines=0;fontStyle=1;align=center;resizeLast=1;" vertex="1" parent="1">
          <mxGeometry x="940" y="485" width="220" height="130" as="geometry" />
        </mxCell>
        <mxCell id="ekgFf3dn49JkfgrPfWF--70" value="" style="shape=partialRectangle;collapsible=0;dropTarget=0;pointerEvents=0;fillColor=none;top=0;left=0;bottom=0;right=0;points=[[0,0.5],[1,0.5]];portConstraint=eastwest;" vertex="1" parent="ekgFf3dn49JkfgrPfWF--69">
          <mxGeometry y="30" width="220" height="30" as="geometry" />
        </mxCell>
        <mxCell id="ekgFf3dn49JkfgrPfWF--71" value="PK" style="shape=partialRectangle;connectable=0;fillColor=none;top=0;left=0;bottom=0;right=0;fontStyle=1;overflow=hidden;" vertex="1" parent="ekgFf3dn49JkfgrPfWF--70">
          <mxGeometry width="60" height="30" as="geometry" />
        </mxCell>
        <mxCell id="ekgFf3dn49JkfgrPfWF--72" value="id: integer" style="shape=partialRectangle;connectable=0;fillColor=none;top=0;left=0;bottom=0;right=0;align=left;spacingLeft=6;fontStyle=5;overflow=hidden;" vertex="1" parent="ekgFf3dn49JkfgrPfWF--70">
          <mxGeometry x="60" width="160" height="30" as="geometry" />
        </mxCell>
        <mxCell id="ekgFf3dn49JkfgrPfWF--76" value="" style="shape=partialRectangle;collapsible=0;dropTarget=0;pointerEvents=0;fillColor=none;top=0;left=0;bottom=0;right=0;points=[[0,0.5],[1,0.5]];portConstraint=eastwest;" vertex="1" parent="ekgFf3dn49JkfgrPfWF--69">
          <mxGeometry y="60" width="220" height="30" as="geometry" />
        </mxCell>
        <mxCell id="ekgFf3dn49JkfgrPfWF--77" value="" style="shape=partialRectangle;connectable=0;fillColor=none;top=0;left=0;bottom=0;right=0;editable=1;overflow=hidden;" vertex="1" parent="ekgFf3dn49JkfgrPfWF--76">
          <mxGeometry width="60" height="30" as="geometry" />
        </mxCell>
        <mxCell id="ekgFf3dn49JkfgrPfWF--78" value="name: string(100)" style="shape=partialRectangle;connectable=0;fillColor=none;top=0;left=0;bottom=0;right=0;align=left;spacingLeft=6;overflow=hidden;" vertex="1" parent="ekgFf3dn49JkfgrPfWF--76">
          <mxGeometry x="60" width="160" height="30" as="geometry" />
        </mxCell>
        <mxCell id="ekgFf3dn49JkfgrPfWF--79" value="" style="shape=partialRectangle;collapsible=0;dropTarget=0;pointerEvents=0;fillColor=none;top=0;left=0;bottom=0;right=0;points=[[0,0.5],[1,0.5]];portConstraint=eastwest;" vertex="1" parent="ekgFf3dn49JkfgrPfWF--69">
          <mxGeometry y="90" width="220" height="30" as="geometry" />
        </mxCell>
        <mxCell id="ekgFf3dn49JkfgrPfWF--80" value="" style="shape=partialRectangle;connectable=0;fillColor=none;top=0;left=0;bottom=0;right=0;editable=1;overflow=hidden;" vertex="1" parent="ekgFf3dn49JkfgrPfWF--79">
          <mxGeometry width="60" height="30" as="geometry" />
        </mxCell>
        <mxCell id="ekgFf3dn49JkfgrPfWF--81" value="desc: text" style="shape=partialRectangle;connectable=0;fillColor=none;top=0;left=0;bottom=0;right=0;align=left;spacingLeft=6;overflow=hidden;" vertex="1" parent="ekgFf3dn49JkfgrPfWF--79">
          <mxGeometry x="60" width="160" height="30" as="geometry" />
        </mxCell>
        <mxCell id="ekgFf3dn49JkfgrPfWF--82" value="RolePermission" style="shape=table;startSize=30;container=1;collapsible=1;childLayout=tableLayout;fixedRows=1;rowLines=0;fontStyle=1;align=center;resizeLast=1;" vertex="1" parent="1">
          <mxGeometry x="953" y="260" width="220" height="140" as="geometry" />
        </mxCell>
        <mxCell id="ekgFf3dn49JkfgrPfWF--83" value="" style="shape=partialRectangle;collapsible=0;dropTarget=0;pointerEvents=0;fillColor=none;top=0;left=0;bottom=0;right=0;points=[[0,0.5],[1,0.5]];portConstraint=eastwest;" vertex="1" parent="ekgFf3dn49JkfgrPfWF--82">
          <mxGeometry y="30" width="220" height="30" as="geometry" />
        </mxCell>
        <mxCell id="ekgFf3dn49JkfgrPfWF--84" value="PK" style="shape=partialRectangle;connectable=0;fillColor=none;top=0;left=0;bottom=0;right=0;fontStyle=1;overflow=hidden;" vertex="1" parent="ekgFf3dn49JkfgrPfWF--83">
          <mxGeometry width="60" height="30" as="geometry" />
        </mxCell>
        <mxCell id="ekgFf3dn49JkfgrPfWF--85" value="id: integer" style="shape=partialRectangle;connectable=0;fillColor=none;top=0;left=0;bottom=0;right=0;align=left;spacingLeft=6;fontStyle=5;overflow=hidden;" vertex="1" parent="ekgFf3dn49JkfgrPfWF--83">
          <mxGeometry x="60" width="160" height="30" as="geometry" />
        </mxCell>
        <mxCell id="ekgFf3dn49JkfgrPfWF--89" value="" style="shape=partialRectangle;collapsible=0;dropTarget=0;pointerEvents=0;fillColor=none;top=0;left=0;bottom=0;right=0;points=[[0,0.5],[1,0.5]];portConstraint=eastwest;" vertex="1" parent="ekgFf3dn49JkfgrPfWF--82">
          <mxGeometry y="60" width="220" height="30" as="geometry" />
        </mxCell>
        <mxCell id="ekgFf3dn49JkfgrPfWF--90" value="FK" style="shape=partialRectangle;connectable=0;fillColor=none;top=0;left=0;bottom=0;right=0;editable=1;overflow=hidden;" vertex="1" parent="ekgFf3dn49JkfgrPfWF--89">
          <mxGeometry width="60" height="30" as="geometry" />
        </mxCell>
        <mxCell id="ekgFf3dn49JkfgrPfWF--91" value="role_id: integer" style="shape=partialRectangle;connectable=0;fillColor=none;top=0;left=0;bottom=0;right=0;align=left;spacingLeft=6;overflow=hidden;" vertex="1" parent="ekgFf3dn49JkfgrPfWF--89">
          <mxGeometry x="60" width="160" height="30" as="geometry" />
        </mxCell>
        <mxCell id="ekgFf3dn49JkfgrPfWF--92" value="" style="shape=partialRectangle;collapsible=0;dropTarget=0;pointerEvents=0;fillColor=none;top=0;left=0;bottom=0;right=0;points=[[0,0.5],[1,0.5]];portConstraint=eastwest;" vertex="1" parent="ekgFf3dn49JkfgrPfWF--82">
          <mxGeometry y="90" width="220" height="30" as="geometry" />
        </mxCell>
        <mxCell id="ekgFf3dn49JkfgrPfWF--93" value="FK" style="shape=partialRectangle;connectable=0;fillColor=none;top=0;left=0;bottom=0;right=0;editable=1;overflow=hidden;" vertex="1" parent="ekgFf3dn49JkfgrPfWF--92">
          <mxGeometry width="60" height="30" as="geometry" />
        </mxCell>
        <mxCell id="ekgFf3dn49JkfgrPfWF--94" value="permission_id: integer" style="shape=partialRectangle;connectable=0;fillColor=none;top=0;left=0;bottom=0;right=0;align=left;spacingLeft=6;overflow=hidden;" vertex="1" parent="ekgFf3dn49JkfgrPfWF--92">
          <mxGeometry x="60" width="160" height="30" as="geometry" />
        </mxCell>
        <mxCell id="ekgFf3dn49JkfgrPfWF--95" style="edgeStyle=orthogonalEdgeStyle;rounded=0;orthogonalLoop=1;jettySize=auto;html=1;exitX=0;exitY=0.5;exitDx=0;exitDy=0;entryX=1;entryY=0.5;entryDx=0;entryDy=0;" edge="1" parent="1" source="ekgFf3dn49JkfgrPfWF--89" target="ekgFf3dn49JkfgrPfWF--22">
          <mxGeometry relative="1" as="geometry" />
        </mxCell>
        <mxCell id="ekgFf3dn49JkfgrPfWF--96" style="edgeStyle=orthogonalEdgeStyle;rounded=0;orthogonalLoop=1;jettySize=auto;html=1;exitX=0;exitY=0.5;exitDx=0;exitDy=0;entryX=0;entryY=0.5;entryDx=0;entryDy=0;" edge="1" parent="1" source="ekgFf3dn49JkfgrPfWF--92" target="ekgFf3dn49JkfgrPfWF--70">
          <mxGeometry relative="1" as="geometry" />
        </mxCell>
        <mxCell id="ekgFf3dn49JkfgrPfWF--97" value="GroupPermission" style="shape=table;startSize=30;container=1;collapsible=1;childLayout=tableLayout;fixedRows=1;rowLines=0;fontStyle=1;align=center;resizeLast=1;" vertex="1" parent="1">
          <mxGeometry x="530" y="720" width="220" height="130" as="geometry" />
        </mxCell>
        <mxCell id="ekgFf3dn49JkfgrPfWF--98" value="" style="shape=partialRectangle;collapsible=0;dropTarget=0;pointerEvents=0;fillColor=none;top=0;left=0;bottom=0;right=0;points=[[0,0.5],[1,0.5]];portConstraint=eastwest;" vertex="1" parent="ekgFf3dn49JkfgrPfWF--97">
          <mxGeometry y="30" width="220" height="30" as="geometry" />
        </mxCell>
        <mxCell id="ekgFf3dn49JkfgrPfWF--99" value="PK" style="shape=partialRectangle;connectable=0;fillColor=none;top=0;left=0;bottom=0;right=0;fontStyle=1;overflow=hidden;" vertex="1" parent="ekgFf3dn49JkfgrPfWF--98">
          <mxGeometry width="60" height="30" as="geometry" />
        </mxCell>
        <mxCell id="ekgFf3dn49JkfgrPfWF--100" value="id: integer" style="shape=partialRectangle;connectable=0;fillColor=none;top=0;left=0;bottom=0;right=0;align=left;spacingLeft=6;fontStyle=5;overflow=hidden;" vertex="1" parent="ekgFf3dn49JkfgrPfWF--98">
          <mxGeometry x="60" width="160" height="30" as="geometry" />
        </mxCell>
        <mxCell id="ekgFf3dn49JkfgrPfWF--104" value="" style="shape=partialRectangle;collapsible=0;dropTarget=0;pointerEvents=0;fillColor=none;top=0;left=0;bottom=0;right=0;points=[[0,0.5],[1,0.5]];portConstraint=eastwest;" vertex="1" parent="ekgFf3dn49JkfgrPfWF--97">
          <mxGeometry y="60" width="220" height="30" as="geometry" />
        </mxCell>
        <mxCell id="ekgFf3dn49JkfgrPfWF--105" value="FK" style="shape=partialRectangle;connectable=0;fillColor=none;top=0;left=0;bottom=0;right=0;editable=1;overflow=hidden;" vertex="1" parent="ekgFf3dn49JkfgrPfWF--104">
          <mxGeometry width="60" height="30" as="geometry" />
        </mxCell>
        <mxCell id="ekgFf3dn49JkfgrPfWF--106" value="group_id: integer" style="shape=partialRectangle;connectable=0;fillColor=none;top=0;left=0;bottom=0;right=0;align=left;spacingLeft=6;overflow=hidden;" vertex="1" parent="ekgFf3dn49JkfgrPfWF--104">
          <mxGeometry x="60" width="160" height="30" as="geometry" />
        </mxCell>
        <mxCell id="ekgFf3dn49JkfgrPfWF--107" value="" style="shape=partialRectangle;collapsible=0;dropTarget=0;pointerEvents=0;fillColor=none;top=0;left=0;bottom=0;right=0;points=[[0,0.5],[1,0.5]];portConstraint=eastwest;" vertex="1" parent="ekgFf3dn49JkfgrPfWF--97">
          <mxGeometry y="90" width="220" height="30" as="geometry" />
        </mxCell>
        <mxCell id="ekgFf3dn49JkfgrPfWF--108" value="FK" style="shape=partialRectangle;connectable=0;fillColor=none;top=0;left=0;bottom=0;right=0;editable=1;overflow=hidden;" vertex="1" parent="ekgFf3dn49JkfgrPfWF--107">
          <mxGeometry width="60" height="30" as="geometry" />
        </mxCell>
        <mxCell id="ekgFf3dn49JkfgrPfWF--109" value="permission_id: integer" style="shape=partialRectangle;connectable=0;fillColor=none;top=0;left=0;bottom=0;right=0;align=left;spacingLeft=6;overflow=hidden;" vertex="1" parent="ekgFf3dn49JkfgrPfWF--107">
          <mxGeometry x="60" width="160" height="30" as="geometry" />
        </mxCell>
        <mxCell id="ekgFf3dn49JkfgrPfWF--110" style="edgeStyle=orthogonalEdgeStyle;rounded=0;orthogonalLoop=1;jettySize=auto;html=1;exitX=0;exitY=0.5;exitDx=0;exitDy=0;entryX=1;entryY=0.5;entryDx=0;entryDy=0;" edge="1" parent="1" source="ekgFf3dn49JkfgrPfWF--104" target="ekgFf3dn49JkfgrPfWF--38">
          <mxGeometry relative="1" as="geometry">
            <Array as="points">
              <mxPoint x="320" y="795" />
              <mxPoint x="320" y="485" />
            </Array>
          </mxGeometry>
        </mxCell>
        <mxCell id="ekgFf3dn49JkfgrPfWF--111" style="edgeStyle=orthogonalEdgeStyle;rounded=0;orthogonalLoop=1;jettySize=auto;html=1;exitX=1;exitY=0.5;exitDx=0;exitDy=0;entryX=0;entryY=0.5;entryDx=0;entryDy=0;" edge="1" parent="1" source="ekgFf3dn49JkfgrPfWF--107" target="ekgFf3dn49JkfgrPfWF--70">
          <mxGeometry relative="1" as="geometry" />
        </mxCell>
      </root>
    </mxGraphModel>
  </diagram>
</mxfile>
